<svg width="85" height="99" viewBox="0 0 85 99" fill="none" xmlns="http://www.w3.org/2000/svg">
<path d="M85 25.1676C85 24.7825 85 24.1368 77.9305 1.84611C77.6698 1.0266 76.9096 0.469727 76.0486 0.469727H8.95142C8.09044 0.469727 7.3282 1.0266 7.06951 1.84808C0 24.1506 0 24.7865 0 25.1676C0 28.6273 3.84676 31.3564 8.9297 31.7237V51.6585H4.46682C3.37678 51.6585 2.4921 52.5412 2.4921 53.6332V62.2845C2.4921 63.3765 3.37678 64.2592 4.46682 64.2592H8.9297V88.0487C8.9297 89.1407 9.81438 90.0234 10.9044 90.0234H16.7634C17.6955 94.9997 22.0636 98.7794 27.3045 98.7794C32.5454 98.7794 36.9155 94.9997 37.8476 90.0234H47.1564C48.0885 94.9997 52.4566 98.7794 57.6994 98.7794C62.9404 98.7794 67.3085 94.9997 68.2405 90.0234H74.0956C75.1856 90.0234 76.0703 89.1407 76.0703 88.0487V64.2592H80.5332C81.6232 64.2592 82.5079 63.3765 82.5079 62.2845V53.6332C82.5079 52.5412 81.6232 51.6585 80.5332 51.6585H76.0703V31.7237C81.1532 31.3564 85 28.6273 85 25.1676ZM81.0387 25.2979C80.8551 26.3603 78.4617 27.8493 74.925 27.8493C71.2421 27.8493 68.7994 26.2359 68.7994 25.1696C68.7994 24.4942 68.6335 23.8603 68.3669 23.262L64.7729 4.42115H74.6031C77.0695 12.2154 80.6003 23.5148 81.0387 25.2979ZM64.5873 24.3501L64.8321 25.3335C64.5991 26.3939 62.2097 27.8473 58.7026 27.8473C55.0198 27.8473 52.577 26.2339 52.577 25.1676C52.577 25.1301 52.5573 25.0985 52.5553 25.061C52.5533 25.0234 52.5691 24.9899 52.5652 24.9504L50.2962 4.41917H60.7504L64.5122 24.1427C64.5261 24.2118 64.5656 24.2671 64.5853 24.3323C64.5873 24.3382 64.5853 24.3441 64.5873 24.3501ZM20.2686 24.7391C20.3634 24.5693 20.4838 24.1625 20.4858 24.1427L24.2476 4.41917H34.7018L32.4348 24.9504C32.4309 24.9879 32.4467 25.0215 32.4447 25.061C32.4427 25.0985 32.423 25.1301 32.423 25.1676C32.423 26.2339 29.9803 27.8473 26.2974 27.8473C22.6007 27.8473 20.1481 26.2339 20.1481 25.1676C20.1501 25.0215 20.1896 24.8832 20.2686 24.7391ZM38.6769 4.41917H46.3211L48.6157 25.1992C48.5683 26.2655 46.1453 27.8473 42.498 27.8473C38.8507 27.8473 36.4277 26.2655 36.3803 25.1992L38.6769 4.41917ZM3.9613 25.2999C4.40363 23.5128 7.93247 12.2174 10.3989 4.42115H20.2291L16.6351 23.2659C16.3705 23.8722 16.2046 24.5041 16.2026 25.1636C16.2026 25.1656 16.2026 25.1656 16.2026 25.1676C16.2026 26.2339 13.7599 27.8473 10.077 27.8473C6.54029 27.8493 4.14692 26.3623 3.9613 25.2999ZM27.3045 94.8299C23.5644 94.8299 20.5213 91.7869 20.5213 88.0448C20.5213 84.3046 23.5644 81.2616 27.3045 81.2616C31.0446 81.2616 34.0877 84.3046 34.0877 88.0448C34.0877 91.7869 31.0446 94.8299 27.3045 94.8299ZM57.6955 94.8299C53.9554 94.8299 50.9123 91.7869 50.9123 88.0448C50.9123 84.3046 53.9554 81.2616 57.6955 81.2616C61.4356 81.2616 64.4787 84.3046 64.4787 88.0448C64.4787 91.7869 61.4356 94.8299 57.6955 94.8299ZM72.1209 86.074H68.2385C67.3104 81.0957 62.9404 77.3121 57.6955 77.3121C52.4506 77.3121 48.0806 81.0937 47.1524 86.074H37.8476C36.9194 81.0957 32.5494 77.3121 27.3045 77.3121C22.0616 77.3121 17.6915 81.0937 16.7615 86.074H12.8791V64.2592H72.1209V86.074ZM78.5584 60.3098H6.44155V55.608H78.5584V60.3098ZM26.8839 41.6072H20.5806V38.9887H26.8839V41.6072ZM20.5806 45.5566H28.8586H32.9581V51.6585H20.5806V45.5566ZM64.0521 51.6585H57.0083V48.8406H64.0521V51.6585ZM68.0016 51.6585V46.8659C68.0016 45.7738 67.1169 44.8911 66.0269 44.8911H55.0336C53.9435 44.8911 53.0588 45.7738 53.0588 46.8659V51.6585H36.9096V43.5819C36.9096 42.4899 36.0249 41.6072 34.9348 41.6072H30.8353V37.014C30.8353 35.9219 29.9506 35.0392 28.8606 35.0392H18.6058C17.5158 35.0392 16.6311 35.9219 16.6311 37.014V43.5819V51.6585H12.8791V31.5341C15.0474 31.1471 16.8977 30.3374 18.1773 29.2079C19.9882 30.8035 22.8969 31.7987 26.2994 31.7987C29.6367 31.7987 32.5474 30.7817 34.3701 29.1842C36.173 30.7916 39.0877 31.7987 42.5 31.7987C45.9123 31.7987 48.827 30.7916 50.6299 29.1842C52.4526 30.7837 55.3633 31.7987 58.7006 31.7987C62.1051 31.7987 65.0138 30.8015 66.8227 29.2079C68.1023 30.3394 69.9526 31.1471 72.1209 31.5341V51.6585H68.0016Z" fill="black"/>
<path d="M27.3435 86.0703H27.3237C26.2337 86.0703 25.3589 86.953 25.3589 88.045C25.3589 89.1371 26.2534 90.0198 27.3435 90.0198C28.4335 90.0198 29.3182 89.1371 29.3182 88.045C29.3182 86.953 28.4335 86.0703 27.3435 86.0703Z" fill="black"/>
<path d="M57.7346 86.0703H57.7149C56.6248 86.0703 55.75 86.953 55.75 88.045C55.75 89.1371 56.6446 90.0198 57.7346 90.0198C58.8246 90.0198 59.7093 89.1371 59.7093 88.045C59.7093 86.953 58.8266 86.0703 57.7346 86.0703Z" fill="black"/>
</svg>
