<svg width="67" height="95" viewBox="0 0 67 95" fill="none" xmlns="http://www.w3.org/2000/svg">
<path d="M50.8583 4.44593C49.6308 4.44593 48.6354 3.45053 48.6354 2.22297C48.6354 0.995401 49.6308 0 50.8583 0C55.1824 0 59.1117 1.76734 61.9586 4.61425C64.8055 7.46116 66.5729 11.3905 66.5729 15.7175V66.4974V79.0807C66.5729 83.4048 64.8055 87.3341 61.9586 90.1839C59.1117 93.0308 55.1824 94.7982 50.8583 94.7982H15.7146C11.3905 94.7982 7.46116 93.0308 4.61425 90.1839C1.76735 87.337 0 83.4077 0 79.0807V66.4974V15.7175C0 11.3934 1.76735 7.46406 4.61425 4.61425C7.46116 1.76734 11.3905 0 15.7146 0C16.9421 0 17.9375 0.995401 17.9375 2.22297C17.9375 3.45053 16.9421 4.44593 15.7146 4.44593C12.6181 4.44593 9.8002 5.71413 7.75426 7.75716C5.71122 9.8002 4.44013 12.6181 4.44013 15.7175V64.2774H62.1299V15.7175C62.1299 12.6181 60.8617 9.8002 58.8157 7.75716C56.7727 5.71413 53.9548 4.44593 50.8554 4.44593H50.8583ZM16.1063 23.4224C15.2386 22.5547 15.2386 21.1501 16.1063 20.2824C16.9741 19.4147 18.3786 19.4147 19.2493 20.2824L31.0664 32.0995V2.22587C31.0664 0.998303 32.0618 0.00290204 33.2893 0.00290204C34.5169 0.00290204 35.5123 0.998303 35.5123 2.22587V32.0995L47.3294 20.2824C48.1971 19.4147 49.6046 19.4147 50.4723 20.2824C51.3401 21.1501 51.3401 22.5547 50.4723 23.4224L34.8623 39.0325C33.9945 39.9002 32.5871 39.9002 31.7193 39.0325L16.1092 23.4224H16.1063ZM29.0959 81.4865C27.8683 81.4865 26.8729 80.4911 26.8729 79.2664C26.8729 78.0389 27.8683 77.0435 29.0959 77.0435H37.477C38.7046 77.0435 39.7 78.0389 39.7 79.2664C39.7 80.494 38.7046 81.4865 37.477 81.4865H29.0959ZM4.44303 68.7204V79.0807C4.44303 82.1801 5.71122 84.998 7.75716 87.041C9.8002 89.0841 12.6181 90.3523 15.7175 90.3523H50.8612C53.9577 90.3523 56.7756 89.0841 58.8215 87.041C60.8646 84.998 62.1357 82.1801 62.1357 79.0807V68.7204H4.44593H4.44303Z" fill="black"/>
</svg>
