<svg width="24" height="23" viewBox="0 0 24 23" fill="none" xmlns="http://www.w3.org/2000/svg">
<path d="M21.6 4.84211H18V2.42105C18 1.07737 16.932 0 15.6 0H8.4C7.068 0 6 1.07737 6 2.42105V4.84211H2.4C1.068 4.84211 0 5.91947 0 7.26316V20.5789C0 21.9226 1.068 23 2.4 23H21.6C22.932 23 24 21.9226 24 20.5789V7.26316C24 5.91947 22.932 4.84211 21.6 4.84211ZM8.4 2.42105H15.6V4.84211H8.4V2.42105ZM21.6 20.5789H2.4V18.1579H21.6V20.5789ZM21.6 14.5263H2.4V7.26316H6V9.68421H8.4V7.26316H15.6V9.68421H18V7.26316H21.6V14.5263Z" fill="#0E0E0E"/>
</svg>
