<svg width="88" height="91" viewBox="0 0 88 91" fill="none" xmlns="http://www.w3.org/2000/svg">
<path d="M86.7425 82.494L76.0551 79.6838L70.4435 59.4895C72.4982 58.5668 74.2534 56.9995 75.4686 54.9013C77.3883 51.5772 77.8356 47.3133 76.6964 43.2095L69.5237 17.4034C69.0975 15.8614 67.4774 14.943 65.8993 15.3389L48.2758 19.8892H48.2716C47.4953 20.0915 46.8455 20.5844 46.4489 21.2669C46.0565 21.9452 45.9553 22.7331 46.162 23.4873L53.3389 49.302C55.1701 55.8999 60.6383 60.4168 66.2541 60.4168C66.5621 60.4168 66.8659 60.3283 67.1697 60.2988L72.7981 80.5513L65.0305 88.1055C64.482 88.6406 64.3596 89.4748 64.7351 90.1405C65.0389 90.6798 65.6043 91 66.2034 91C66.3427 91 66.4861 90.9831 66.6254 90.9494L86.7342 85.7546C87.481 85.5608 87.9958 84.8909 88 84.1241C88.0042 83.3573 87.4852 82.6874 86.7426 82.4894L86.7425 82.494ZM66.3766 18.6982L68.2584 25.4645H50.2126L49.5418 23.0503L66.381 18.698L66.3766 18.6982ZM56.5879 48.4055L51.1492 28.8346H69.1993L73.4481 44.1117C74.3468 47.3516 74.0177 50.6674 72.5494 53.2164C71.4693 55.0871 69.8913 56.3383 67.9925 56.8271C63.3092 58.0363 58.2207 54.2529 56.5917 48.4049L56.5879 48.4055ZM71.9376 86.1008L75.1865 82.9409L79.6378 84.1121L71.9419 86.1008H71.9376ZM39.7324 19.8317H39.7282L22.1048 15.2814C20.5014 14.8854 18.9024 15.7997 18.4804 17.3374L11.3035 43.1521C10.1643 47.2558 10.6073 51.5196 12.5313 54.844C13.7464 56.9421 15.5016 58.5094 17.5564 59.4321L11.9447 79.6307L1.25738 82.4409C0.510567 82.6347 0 83.3046 0 84.0756C0 84.8424 0.518971 85.5123 1.26581 85.7061L21.3746 90.901C21.5139 90.9389 21.6531 90.9515 21.7965 90.9515C22.3957 90.9515 22.9652 90.6313 23.2649 90.092C23.6404 89.4264 23.5222 88.5922 22.9695 88.0571L15.2061 80.5028L20.8345 60.246C21.1425 60.2713 21.4463 60.364 21.7501 60.364C27.3617 60.364 32.8344 55.8474 34.6653 49.2492L41.8464 23.4302C42.0489 22.6802 41.9477 21.8923 41.5553 21.214C41.1544 20.5315 40.5089 20.0386 39.7325 19.8364L39.7324 19.8317ZM21.6273 18.6352L38.4665 22.9874L37.7957 25.4016H19.7499L21.6317 18.6353L21.6273 18.6352ZM8.37405 84.0489L12.8212 82.8819L16.0658 86.0334L8.37405 84.0489ZM31.4197 48.3425C29.7953 54.1904 24.7026 57.9739 20.019 56.7647C18.1203 56.276 16.5422 55.0246 15.4621 53.1539C13.9938 50.6049 13.6604 47.2891 14.5634 44.0492L18.8122 28.7722H36.8623L31.4236 48.343L31.4197 48.3425ZM45.7823 1.68528V11.6074C45.7823 12.5385 45.027 13.2926 44.0945 13.2926C43.1621 13.2926 42.4068 12.5385 42.4068 11.6074V1.68528C42.4068 0.754165 43.1621 0 44.0945 0C45.027 0 45.7823 0.754165 45.7823 1.68528ZM33.1242 3.56018C32.8921 2.65855 33.4322 1.74007 34.3393 1.50419C35.2507 1.27667 36.1621 1.81176 36.3983 2.71759L38.9678 12.6397C39.1999 13.5413 38.6598 14.4598 37.7527 14.6957C37.6092 14.7336 37.47 14.7462 37.3307 14.7462C36.5797 14.7462 35.892 14.2406 35.6937 13.4822L33.1242 3.56018ZM49.2246 12.6397L51.7942 2.71759C52.0262 1.81596 52.946 1.28092 53.8531 1.50419C54.756 1.73591 55.2961 2.65439 55.0683 3.56018L52.4987 13.4822C52.3004 14.2406 51.6169 14.7462 50.8617 14.7462C50.7224 14.7462 50.5832 14.7294 50.4398 14.6957C49.5368 14.464 48.9968 13.5455 49.2246 12.6397Z" fill="black"/>
</svg>
