<svg width="94" height="88" viewBox="0 0 94 88" fill="none" xmlns="http://www.w3.org/2000/svg">
<path d="M25.263 13.0317C25.303 13.1525 25.3697 13.2599 25.4364 13.3673C25.5164 13.4881 25.5964 13.582 25.6897 13.676C25.783 13.77 25.8897 13.8505 25.9964 13.931C26.103 13.9981 26.223 14.0653 26.343 14.1189C26.463 14.1592 26.583 14.1995 26.7164 14.2263C26.8497 14.2532 26.9697 14.2666 27.103 14.2666C27.6364 14.2666 28.143 14.0518 28.5164 13.676C28.8897 13.3002 29.103 12.7901 29.103 12.2532C29.103 11.7297 28.8897 11.2062 28.5164 10.8304C27.7697 10.0787 26.4364 10.0787 25.6897 10.8304C25.5964 10.9243 25.5164 11.0317 25.4364 11.1391C25.3697 11.2465 25.303 11.3673 25.263 11.4881C25.2097 11.6089 25.1697 11.7297 25.143 11.8639C25.1164 11.9981 25.103 12.119 25.103 12.2532C25.103 12.3874 25.1164 12.5216 25.143 12.6424C25.1697 12.7767 25.2097 12.9109 25.263 13.0317Z" fill="black"/>
<path d="M15.1346 13.0118C15.1879 13.1319 15.2413 13.2386 15.3213 13.3452C15.3879 13.4653 15.4679 13.5586 15.5613 13.652C15.9346 14.0254 16.4546 14.2388 16.9746 14.2388C17.1079 14.2388 17.2413 14.2254 17.3746 14.1988C17.4946 14.1721 17.6279 14.1321 17.7479 14.0921C17.8679 14.0387 17.9879 13.972 18.0946 13.9054C18.2013 13.8253 18.2946 13.7453 18.3879 13.652C18.7613 13.2786 18.9746 12.7718 18.9746 12.2383C18.9746 11.7182 18.7613 11.1981 18.3879 10.8247C18.2946 10.7314 18.2013 10.6513 18.0946 10.5713C17.9746 10.5046 17.8679 10.438 17.7479 10.398C17.6279 10.3446 17.4946 10.3046 17.3746 10.2779C16.7213 10.1446 16.0279 10.3579 15.5613 10.8247C15.4679 10.9181 15.3879 11.0248 15.3213 11.1314C15.2413 11.2381 15.1879 11.3582 15.1346 11.4782C15.0813 11.5982 15.0413 11.7182 15.0146 11.8516C14.9879 11.985 14.9746 12.105 14.9746 12.2383C14.9746 12.3717 14.9879 12.5051 15.0146 12.6251C15.0413 12.7585 15.0813 12.8918 15.1346 13.0118Z" fill="black"/>
<path d="M38.6366 10.7757C38.5166 10.7091 38.4099 10.6424 38.2899 10.5891C38.1699 10.5491 38.0366 10.509 37.9166 10.4824C37.6499 10.429 37.3833 10.429 37.1299 10.4824C36.9966 10.509 36.8766 10.5491 36.7566 10.5891C36.6366 10.6424 36.5166 10.7091 36.4099 10.7757C36.3033 10.8557 36.1966 10.9357 36.1033 11.029C35.7299 11.4024 35.5166 11.9224 35.5166 12.4424C35.5166 12.7091 35.5699 12.9624 35.6766 13.2024C35.7699 13.4557 35.9166 13.6691 36.1033 13.8557C36.4899 14.2291 36.9833 14.4424 37.5166 14.4424C37.7833 14.4424 38.0499 14.389 38.2899 14.2957C38.5299 14.189 38.7433 14.0424 38.9299 13.8557C39.1166 13.6691 39.2633 13.4557 39.3699 13.2024C39.4766 12.9624 39.5166 12.7091 39.5166 12.4424C39.5166 11.9091 39.3033 11.4024 38.9299 11.029C38.8366 10.9357 38.7433 10.8557 38.6366 10.7757Z" fill="black"/>
<path d="M61.2055 33.6426H17.0166C15.8867 33.6426 14.9746 34.6226 14.9746 35.8366C14.9746 37.0507 15.8867 38.0307 17.0166 38.0307H61.2055C62.3354 38.0307 63.2475 37.0507 63.2475 35.8366C63.2475 34.6226 62.3354 33.6426 61.2055 33.6426Z" fill="black"/>
<path d="M85.9273 0H8.0727C3.62114 0 0 3.8908 0 8.65923V63.9935C0 68.7619 3.62114 72.6527 8.0727 72.6527H59.4902L59.5855 85.5831C59.5855 86.4753 60.1028 87.2798 60.8788 87.6016C61.1238 87.704 61.3825 87.7625 61.6275 87.7625C62.172 87.7625 62.7166 87.5285 63.1114 87.075L70.2992 78.957L80.727 79.4104C81.5574 79.4397 82.3334 78.9424 82.6737 78.1232C83.014 77.3041 82.8643 76.3534 82.2925 75.7098L79.5835 72.6527H85.9273C90.3789 72.6527 94 68.7619 94 63.9935V8.65923C94 3.8908 90.3789 0 85.9273 0ZM8.0727 4.38812H85.9273C88.1327 4.38812 89.916 6.30427 89.916 8.65923V17.6841H4.084V8.65923C4.084 6.30427 5.86734 4.38812 8.0727 4.38812ZM69.5505 74.5396C68.9651 74.5104 68.3933 74.759 67.9849 75.2124L63.6287 80.1272L63.4925 60.8779L75.8534 74.8175L69.5505 74.5396ZM85.9273 68.2646H75.6901L62.8936 53.8423C62.3218 53.1841 61.4233 52.9939 60.6474 53.3157C59.8714 53.6521 59.3677 54.4713 59.3677 55.3635L59.463 68.2646H8.0727C5.86734 68.2646 4.084 66.3484 4.084 63.9935V22.0723H89.916V63.9935C89.916 66.3484 88.1327 68.2646 85.9273 68.2646Z" fill="black"/>
</svg>
