<svg width="61" height="59" viewBox="0 0 61 59" fill="none" xmlns="http://www.w3.org/2000/svg">
<path d="M40.7886 58.4672C41.4539 58.4672 41.9933 57.9361 41.9933 57.2811C41.9933 56.626 41.4539 56.095 40.7886 56.095C40.1233 56.095 39.584 56.626 39.584 57.2811C39.584 57.9361 40.1233 58.4672 40.7886 58.4672Z" fill="#0E0E0E"/>
<path d="M60.1403 25.9973C60.0752 25.8419 59.9789 25.7055 59.8572 25.5905C59.85 25.5834 59.8488 25.5739 59.8415 25.5679L51.7994 18.309V11.0228C51.7994 9.06094 50.1779 7.46445 48.1855 7.46445H39.7843L32.5589 0.942063C31.1664 -0.314021 29.0679 -0.314021 27.6741 0.942063L20.4487 7.46445H12.0464C10.0539 7.46445 8.43246 9.06094 8.43246 11.0228V18.309L0.390302 25.5668C0.383074 25.5727 0.38187 25.5834 0.374642 25.5893C0.252974 25.7044 0.156603 25.8408 0.0915526 25.9961C0.0746877 26.0365 0.0770966 26.0803 0.0650503 26.1219C0.0349343 26.2274 0 26.3294 0 26.4421V54.9086C0 56.8657 1.62626 58.4669 3.61391 58.4669H34.7658C35.4284 58.4669 35.9705 57.9332 35.9705 57.2808C35.9705 56.6285 35.4284 56.0947 34.7658 56.0947H3.96085L18.643 38.3032H41.5925L56.4155 56.0947H45.6075C44.945 56.0947 44.4029 56.6285 44.4029 57.2808C44.4029 57.9332 44.945 58.4669 45.6075 58.4669H56.6179C58.6056 58.4669 60.2318 56.8657 60.2318 54.9086V26.4421C60.2318 26.3294 60.1969 26.2274 60.1668 26.1242C60.1547 26.0815 60.1571 26.0376 60.1403 25.9973ZM57.8226 54.0439L43.9512 37.3946L57.8226 28.6151V54.0439ZM57.0612 26.2761L51.7994 29.6066V21.5281L57.0612 26.2761ZM29.3016 2.69157C29.7654 2.27168 30.4665 2.27168 30.9303 2.69157L36.2174 7.46445H24.0144L29.3016 2.69157ZM12.0464 9.83665H48.1855C48.8492 9.83665 49.3901 10.3692 49.3901 11.0228V31.132L41.8081 35.9309H18.4237L10.8417 31.132V11.0228C10.8417 10.3692 11.3826 9.83665 12.0464 9.83665ZM2.40927 54.2147V28.6151L16.2855 37.3981L2.40927 54.2147ZM8.43246 21.5281V29.6066L3.1706 26.2761L8.43246 21.5281Z" fill="#0E0E0E"/>
<path d="M29.2606 26.0984C29.4895 26.3237 29.7906 26.4423 30.1159 26.4423C30.4412 26.4423 30.7423 26.3237 30.9712 26.0984L38.199 18.9817C39.0663 18.1159 39.5482 16.9772 39.5482 15.7674C39.5482 14.5576 39.0663 13.4189 38.199 12.553C37.3196 11.6991 36.1752 11.2246 34.9465 11.2246H34.9224C33.6937 11.2246 32.5372 11.6991 31.6699 12.553L30.1159 14.095L28.5619 12.553C27.6825 11.6991 26.5381 11.2246 25.3094 11.2246H25.2853C24.0807 11.2246 22.8881 11.7109 22.0328 12.553C21.1654 13.4189 20.6836 14.5576 20.6836 15.7674C20.6836 16.9772 21.1654 18.1159 22.0328 18.9817L29.2606 26.0984ZM23.7434 14.2373C24.1529 13.8222 24.7071 13.5968 25.2974 13.5968C25.8876 13.5968 26.4418 13.8222 26.8513 14.2373L29.2606 16.6095C29.7184 17.0602 30.5134 17.0484 30.9712 16.6095L33.3805 14.2373C34.1996 13.4189 35.6572 13.4189 36.4884 14.2373C36.9101 14.6406 37.1389 15.1862 37.1389 15.7674C37.1389 16.3486 36.9101 16.8942 36.4884 17.2975L30.1159 23.5838L23.7434 17.2975C23.3217 16.8942 23.0929 16.3486 23.0929 15.7674C23.0929 15.1862 23.3217 14.6406 23.7434 14.2373Z" fill="#0E0E0E"/>
<path d="M18.0699 30.0001H28.9116C29.5742 30.0001 30.1162 29.4664 30.1162 28.814C30.1162 28.1617 29.5742 27.6279 28.9116 27.6279H18.0699C17.4073 27.6279 16.8652 28.1617 16.8652 28.814C16.8652 29.4664 17.4073 30.0001 18.0699 30.0001Z" fill="#0E0E0E"/>
<path d="M37.3438 28.814C37.3438 29.4664 37.8858 30.0001 38.5484 30.0001H42.1623C42.8248 30.0001 43.3669 29.4664 43.3669 28.814C43.3669 28.1617 42.8248 27.6279 42.1623 27.6279H38.5484C37.8858 27.6279 37.3438 28.1617 37.3438 28.814Z" fill="#0E0E0E"/>
<path d="M33.73 30.0001C34.3953 30.0001 34.9347 29.4691 34.9347 28.814C34.9347 28.159 34.3953 27.6279 33.73 27.6279C33.0647 27.6279 32.5254 28.159 32.5254 28.814C32.5254 29.4691 33.0647 30.0001 33.73 30.0001Z" fill="#0E0E0E"/>
<path d="M38.5481 32.373H21.6832C21.0206 32.373 20.4785 32.9068 20.4785 33.5592C20.4785 34.2115 21.0206 34.7453 21.6832 34.7453H38.5481C39.2106 34.7453 39.7527 34.2115 39.7527 33.5592C39.7527 32.9068 39.2106 32.373 38.5481 32.373Z" fill="#0E0E0E"/>
</svg>
