<svg width="60" height="57" viewBox="0 0 60 57" fill="none" xmlns="http://www.w3.org/2000/svg">
<path d="M5.29937 24.6752H54.7039H55.51C55.7964 24.6752 56.0575 24.5758 56.2443 24.4169C56.4296 24.2566 56.5454 24.0333 56.5454 23.7869V17.7463C56.5454 17.5006 56.4296 17.2766 56.2443 17.1163C56.0575 16.9573 55.7964 16.8579 55.51 16.8579H32.143H27.8554H4.48998C4.2036 16.8579 3.94251 16.9573 3.75566 17.1163C3.57045 17.2766 3.45459 17.5006 3.45459 17.7463V23.7869C3.45459 24.0333 3.57045 24.2566 3.75566 24.4169C3.94251 24.5758 4.2036 24.6752 4.48998 24.6752H5.29937ZM46.5537 44.4891C45.5999 44.4891 44.8264 43.8254 44.8264 43.0071C44.8264 42.1887 45.5999 41.5251 46.5537 41.5251H46.5839C47.5377 41.5251 48.3112 42.1887 48.3112 43.0071C48.3112 43.8254 47.5377 44.4891 46.5839 44.4891H46.5537ZM35.5951 44.4884C34.6413 44.4884 33.8679 43.8247 33.8679 43.0064C33.8679 42.188 34.6413 41.5244 35.5951 41.5244H35.6253C36.5791 41.5244 37.3526 42.188 37.3526 43.0064C37.3526 43.8247 36.5791 44.4884 35.6253 44.4884H35.5951ZM24.6374 44.4877C23.6836 44.4877 22.9101 43.824 22.9101 43.0057C22.9101 42.1873 23.6836 41.5237 24.6374 41.5237H24.6676C25.6214 41.5237 26.3949 42.1873 26.3949 43.0057C26.3949 43.824 25.6214 44.4877 24.6676 44.4877H24.6374ZM13.4496 44.4884C12.4958 44.4884 11.7223 43.8247 11.7223 43.0064C11.7223 42.188 12.4958 41.5244 13.4496 41.5244H13.4797C14.4336 41.5244 15.207 42.188 15.207 43.0064C15.207 43.8247 14.4336 44.4884 13.4797 44.4884H13.4496ZM7.02667 45.481C7.33672 45.4166 7.65247 45.3844 7.96987 45.3844C9.03219 45.3844 10.0823 45.7449 10.9276 46.4625L11.2368 46.7054L11.5681 46.9084C12.1514 47.2269 12.8017 47.3865 13.4496 47.3865C14.0982 47.3865 14.7485 47.2269 15.3262 46.9084C15.4771 46.8293 15.6232 46.7229 15.7651 46.6298L16.209 46.2644C17.0322 45.614 18.0326 45.2878 19.0435 45.2878C20.096 45.2878 21.1396 45.6427 21.9791 46.347L22.4034 46.6823C22.5413 46.7789 22.6612 46.8566 22.7559 46.9084C23.3393 47.2262 23.9896 47.3865 24.6382 47.3865C25.286 47.3865 25.9363 47.2269 26.514 46.9084L26.8485 46.7026L27.2704 46.3722C28.0993 45.7141 29.1037 45.3851 30.1171 45.3851C31.1786 45.3851 32.2303 45.7463 33.0813 46.4695L33.3799 46.6998L33.7202 46.9084C34.297 47.2269 34.9465 47.3865 35.5951 47.3865C36.2446 47.3865 36.8941 47.2269 37.4717 46.9084L37.803 46.7047L38.1098 46.4695C38.9608 45.7463 40.0133 45.3851 41.074 45.3851C42.1355 45.3851 43.1872 45.7463 44.0382 46.4695L44.3467 46.7061L44.6714 46.9084C45.2556 47.2269 45.9051 47.3865 46.5537 47.3865C47.2024 47.3865 47.8526 47.2269 48.4303 46.9084L48.7632 46.704L49.1867 46.3722C50.0156 45.7141 51.0208 45.3851 52.0334 45.3851C52.3508 45.3851 52.6665 45.4173 52.9766 45.4817V27.6392H7.02667V45.481ZM52.9766 48.8881C52.824 48.7775 52.6845 48.6683 52.5629 48.564C52.3989 48.4205 52.2105 48.3491 52.0334 48.3491C51.8743 48.3491 51.7062 48.4065 51.5528 48.5192L51.5031 48.564C51.3382 48.7054 51.1416 48.8552 50.9221 49.0071C50.7157 49.1492 50.5036 49.2808 50.2922 49.3977C49.141 50.0326 47.8461 50.3505 46.5537 50.3505C45.2613 50.3505 43.9673 50.0326 42.816 49.3977C42.5892 49.2696 42.377 49.1401 42.1877 49.0092C41.9666 48.8566 41.7708 48.7075 41.6035 48.564C41.4395 48.4205 41.2511 48.3491 41.074 48.3491C40.8961 48.3491 40.706 48.4212 40.538 48.564C40.3527 48.7222 40.1594 48.872 39.9619 49.0078C39.7563 49.1492 39.545 49.2815 39.3337 49.3977C38.1824 50.0326 36.8884 50.3505 35.5951 50.3505C34.3027 50.3505 33.0079 50.0326 31.8582 49.3977C31.6404 49.278 31.4307 49.1485 31.2349 49.0141C31.1076 48.8909 30.8114 48.7054 30.6466 48.564C30.4826 48.4205 30.2941 48.3491 30.1171 48.3491C29.958 48.3491 29.7899 48.4065 29.6365 48.5192C29.4423 48.6942 29.2269 48.8538 29.0074 49.0057C28.7994 49.1492 28.5881 49.2808 28.3759 49.3977C27.2247 50.0319 25.929 50.3505 24.6382 50.3505C23.3442 50.3505 22.0501 50.0319 20.9005 49.3977C20.6386 49.25 20.4101 49.1086 20.2184 48.9742C20.0438 48.8517 19.8651 48.7124 19.6856 48.5591C19.4996 48.4051 19.3258 48.2518 19.0435 48.2518C18.8868 48.2518 18.7196 48.3092 18.5637 48.4226C18.3777 48.585 18.1843 48.7411 17.982 48.8888C17.7625 49.0568 17.5332 49.1996 17.2868 49.3389C16.1894 49.9927 14.7828 50.3505 13.4496 50.3505C12.1571 50.3505 10.8623 50.0326 9.71266 49.3977C9.48421 49.2689 9.27288 49.1387 9.08441 49.0085C8.88532 48.8671 8.70337 48.7292 8.54509 48.5962L8.51245 48.5696C8.33948 48.4226 8.14692 48.3484 7.96987 48.3484C7.79363 48.3484 7.60107 48.4226 7.4281 48.5696C7.29674 48.6802 7.16293 48.7866 7.02667 48.8867V52.4555C7.02667 52.6984 7.14416 52.921 7.33182 53.082C7.5154 53.2437 7.77649 53.3431 8.06288 53.3431H51.9404C52.1998 53.3431 52.4397 53.2612 52.6209 53.1275L52.6714 53.082C52.8591 52.921 52.9766 52.6984 52.9766 52.4555V48.8881ZM29.9996 10.2216C32.4204 4.398 35.8554 1.47885 39.0979 0.456097C42.4195 -0.591857 45.5567 0.259386 47.4896 2.05778C49.4265 3.85967 50.1413 6.60311 48.6139 9.33185C47.7139 10.9391 45.9997 12.5422 43.2354 13.894H55.51C56.7421 13.894 57.8623 14.328 58.6758 15.0245C59.5211 15.7498 60 16.7193 60 17.7463V23.7869C60 24.8433 59.4941 25.8051 58.6823 26.503C58.0671 27.0295 57.2822 27.4019 56.4312 27.5566V52.4555C56.4312 53.5153 55.9261 54.4786 55.1127 55.1765C54.1882 55.8989 53.2157 56.3071 51.9404 56.3071H8.06288C6.83085 56.3071 5.71059 55.873 4.89713 55.1765C4.07713 54.4786 3.57208 53.5153 3.57208 52.4555V27.5573C2.70639 27.4005 1.93046 27.0274 1.32423 26.5086C0.483838 25.7862 0 24.8097 0 23.7869V17.7463C0 16.6892 0.505868 15.7281 1.3177 15.0301C2.16299 14.3049 3.29304 13.894 4.48998 13.894H16.763C13.9987 12.5422 12.2844 10.9391 11.3845 9.33185C9.85708 6.60311 10.5718 3.85967 12.5088 2.05778C14.4417 0.259386 17.5789 -0.591857 20.9005 0.456097C24.143 1.47885 27.5788 4.398 29.9996 10.2216ZM32.2948 13.8548C40.3209 12.7305 44.212 10.3777 45.5102 8.05919C46.3644 6.53381 45.9948 5.02873 44.9537 4.05988C43.9085 3.08683 42.1674 2.64021 40.2858 3.23384C37.4514 4.12779 34.3452 7.20094 32.2948 13.8548ZM14.4882 8.05919C15.7863 10.3777 19.6774 12.7305 27.7036 13.8548C25.6532 7.20094 22.547 4.12779 19.7125 3.23384C17.831 2.64021 16.0899 3.08683 15.0447 4.05988C14.0036 5.02873 13.634 6.53381 14.4882 8.05919Z" fill="#0E0E0E"/>
</svg>
