<svg width="61" height="60" viewBox="0 0 61 60" fill="none" xmlns="http://www.w3.org/2000/svg">
<path d="M35.842 0.00951785C33.9011 0.0118858 31.9721 0.310264 30.1245 0.897528C28.2721 0.303135 26.3383 0 24.3902 0C15.121 0 7.58203 6.56914 7.58203 14.6302C7.61314 18.2226 9.0826 21.654 11.6674 24.176L11.5573 26.8022H11.5549C11.5309 27.4889 11.787 28.1567 12.2681 28.6517C12.7468 29.1466 13.4121 29.426 14.1037 29.4284C14.4627 29.4284 14.8146 29.355 15.1424 29.2129L17.7798 28.0573C21.7431 29.5302 26.0914 29.6368 30.124 28.3604C31.9716 28.9477 33.9006 29.2484 35.8415 29.2508C38.1032 29.2556 40.3457 28.853 42.4591 28.0621L45.0869 29.2129V29.2106C45.4148 29.3527 45.7666 29.4284 46.1232 29.4284C46.8172 29.4261 47.4801 29.1443 47.9612 28.6493C48.4422 28.1544 48.6983 27.4865 48.672 26.7998L48.5596 24.1902V24.1925C51.1563 21.6705 52.6329 18.2344 52.664 14.6347C52.6664 6.56872 45.121 0.00951785 35.842 0.00951785ZM18.3446 25.0191C17.9569 24.8557 17.5189 24.8557 17.1312 25.0191L14.6565 26.1037L14.7618 23.61L14.7594 23.6124C14.7762 23.1696 14.5991 22.741 14.2712 22.4402C12.0095 20.4534 10.6933 17.6211 10.6454 14.6301C10.6454 8.23374 16.8101 3.03105 24.3902 3.03105C24.7707 3.03105 25.132 3.09736 25.503 3.12104V3.1234C21.547 5.65728 19.1201 9.96717 19.0246 14.6297C19.1203 19.3162 21.571 23.6474 25.5606 26.1766C23.0956 26.3542 20.6257 25.9588 18.3451 25.0186L18.3446 25.0191ZM45.9628 22.4568C45.6326 22.7599 45.4531 23.1908 45.4722 23.6337L45.5775 26.1083L43.1101 25.0309V25.0332C42.7248 24.8651 42.2892 24.8604 41.8991 25.019C39.9821 25.8171 37.9238 26.2244 35.8441 26.2197C28.2598 26.2197 22.0877 21.0194 22.0877 14.6279C22.0877 8.23881 28.2598 3.04097 35.8417 3.04097C43.4235 3.04097 49.6005 8.24129 49.6005 14.6303C49.5551 17.6283 48.234 20.47 45.9628 22.4568Z" fill="#0E0E0E"/>
<path d="M28.6003 12.9844C27.7722 12.9844 27.0279 13.4769 26.712 14.2324C26.3961 14.9878 26.5708 15.8569 27.1548 16.4347C27.7388 17.0125 28.6171 17.1854 29.3805 16.8728C30.144 16.5602 30.6418 15.8213 30.6418 15.0044C30.6418 14.4692 30.4264 13.9553 30.0435 13.5764C29.6605 13.1975 29.1412 12.9844 28.6003 12.9844Z" fill="#0E0E0E"/>
<path d="M35.8421 12.9844C35.0163 12.9844 34.2721 13.4769 33.9562 14.2324C33.6403 14.9878 33.815 15.8569 34.3989 16.4347C34.9829 17.0125 35.8612 17.1854 36.6247 16.8728C37.3881 16.5602 37.8859 15.8213 37.8859 15.0044C37.8859 14.4692 37.6705 13.9553 37.2876 13.5764C36.9047 13.1975 36.3853 12.9844 35.8421 12.9844Z" fill="#0E0E0E"/>
<path d="M43.0944 12.9844C42.2687 12.9844 41.5221 13.4769 41.2062 14.2324C40.8903 14.9878 41.065 15.8569 41.6489 16.4347C42.2329 17.0125 43.1112 17.1854 43.8747 16.8728C44.6381 16.5602 45.1359 15.8213 45.1359 15.0044C45.1359 14.4692 44.9205 13.9553 44.5376 13.5764C44.1547 13.1975 43.6353 12.9844 43.0944 12.9844Z" fill="#0E0E0E"/>
<path d="M55.696 43.639C55.8037 43.4685 55.8803 43.2767 55.976 43.0967C56.0718 42.9168 56.1651 42.8078 56.2369 42.6492C56.2728 42.5734 56.2848 42.4905 56.3159 42.4124C56.3494 42.3366 56.402 42.2632 56.4332 42.1827C56.505 41.9932 56.5385 41.7943 56.5959 41.6025C56.6533 41.4107 56.7299 41.1762 56.7754 40.9583H56.7778C56.8256 40.6955 56.8615 40.4303 56.8831 40.1627C56.907 39.9259 56.9453 39.6914 56.9453 39.4522V39.3409L56.9477 39.3433C56.9477 38.9905 56.9238 38.6399 56.8759 38.2918C56.8759 38.2682 56.8568 38.2492 56.8544 38.2255H56.852C56.773 37.6406 56.6294 37.0651 56.4236 36.511C55.6721 34.5147 54.1428 32.9021 52.1803 32.0306C52.0654 31.9809 51.9481 31.9572 51.8333 31.9146V31.9122C51.7926 31.8838 51.7495 31.8577 51.7064 31.8341C51.5365 31.7725 51.3594 31.7464 51.1871 31.6967C50.9238 31.6186 50.6654 31.5381 50.3997 31.4954C50.134 31.4504 49.8971 31.422 49.641 31.396C49.3849 31.3699 49.1073 31.3439 48.8392 31.3439C48.576 31.3462 48.3127 31.3652 48.0518 31.396C47.7934 31.4149 47.5349 31.4481 47.2788 31.4954C47.0156 31.5475 46.7595 31.6257 46.501 31.6967C46.3263 31.7488 46.1468 31.7725 45.9769 31.8364C45.9314 31.8601 45.8907 31.8862 45.8501 31.9146C45.7352 31.9596 45.6155 31.9809 45.503 32.0306V32.033C43.5382 32.9021 42.0089 34.5148 41.255 36.5087C41.0491 37.0628 40.9056 37.6359 40.8242 38.2208C40.8242 38.2469 40.8026 38.2682 40.7979 38.2942C40.7548 38.6423 40.7308 38.9951 40.7308 39.348C40.7308 39.3836 40.7308 39.4214 40.7404 39.457C40.7404 39.6914 40.7787 39.9259 40.8026 40.1603C40.8314 40.4279 40.8529 40.6955 40.9079 40.9584C40.9534 41.1739 41.0252 41.3846 41.0874 41.6001C41.1497 41.8133 41.1784 41.9932 41.2502 42.1827C41.2813 42.2632 41.3315 42.3319 41.3674 42.4124C41.4033 42.4929 41.4129 42.571 41.4464 42.6492C41.5206 42.8079 41.6259 42.9452 41.7073 43.0968C41.7887 43.2507 41.8796 43.4662 41.9873 43.6391L41.9921 43.6367C40.3048 44.3471 38.943 45.6519 38.1724 47.2978C37.7847 47.0515 37.3731 46.8384 36.9471 46.6655C38.5434 44.1932 38.6535 41.0578 37.2295 38.4862C35.8055 35.9144 33.0796 34.316 30.1169 34.316C27.1517 34.316 24.4257 35.9144 23.0019 38.4862C21.5803 41.058 21.688 44.1933 23.2843 46.6655C22.8559 46.836 22.4466 47.0491 22.0589 47.2978C21.2883 45.6544 19.9265 44.3495 18.2393 43.6367C18.347 43.4662 18.4235 43.2744 18.5193 43.0944C18.615 42.9144 18.7083 42.8055 18.7801 42.6468C18.816 42.571 18.828 42.4882 18.8591 42.41C18.8926 42.3342 18.9453 42.2608 18.9764 42.1803C19.0482 41.9909 19.0817 41.7896 19.1391 41.5977C19.1966 41.4059 19.2731 41.1739 19.3186 40.956C19.3737 40.6931 19.3952 40.4255 19.4239 40.1603C19.4479 39.9235 19.4862 39.6914 19.4862 39.4522C19.4862 39.4167 19.4957 39.3788 19.4957 39.3433L19.5005 39.3457C19.5005 38.9928 19.479 38.6423 19.4335 38.2942C19.4335 38.2682 19.412 38.2469 19.4072 38.2208C19.3258 37.6359 19.1822 37.0628 18.9788 36.5087C18.2249 34.5147 16.7004 32.9021 14.7403 32.0306C14.6254 31.9809 14.5081 31.9572 14.3932 31.9146V31.9122C14.3526 31.8838 14.3095 31.8577 14.2664 31.8341C14.0965 31.7725 13.9218 31.7488 13.7471 31.6967C13.4862 31.6186 13.2253 31.5381 12.9596 31.4954C12.6916 31.4504 12.4571 31.422 12.2034 31.396C11.9497 31.3699 11.6673 31.3439 11.3992 31.3439C11.136 31.3462 10.8727 31.3652 10.6118 31.396C10.3533 31.4149 10.0949 31.4481 9.83879 31.4954C9.57793 31.5475 9.31945 31.6257 9.06339 31.6967C8.88868 31.7488 8.70919 31.7725 8.53687 31.8364H8.53447C8.49139 31.8601 8.45071 31.8862 8.41003 31.9146C8.29515 31.9596 8.17788 31.9809 8.063 32.0306L8.06061 32.033C6.09814 32.9021 4.56884 34.5148 3.81494 36.5087C3.60672 37.0628 3.46312 37.6383 3.38415 38.2255C3.38415 38.2469 3.36261 38.2658 3.36261 38.2895C3.31475 38.64 3.29081 38.9928 3.29081 39.348C3.29081 39.3835 3.29081 39.4214 3.30038 39.457C3.30038 39.6914 3.33868 39.9258 3.36261 40.1603C3.39133 40.4279 3.41287 40.6955 3.46791 40.9584C3.51339 41.1739 3.58519 41.3846 3.64741 41.6001C3.70963 41.8132 3.73836 41.9932 3.81015 42.1827C3.84126 42.2632 3.89152 42.3319 3.92742 42.4124C3.96332 42.4929 3.97289 42.571 4.0064 42.6492C4.08059 42.8078 4.1859 42.9452 4.26727 43.0968C4.34864 43.2507 4.43958 43.4662 4.54728 43.639L4.55207 43.6367C1.78307 44.7947 -0.0118879 47.4849 5.9276e-05 50.4592C5.9276e-05 52.3774 1.17756 56.5834 4.6765 56.5834H18.1554C18.5527 56.5668 18.9428 56.491 19.3161 56.3632C19.8355 58.1984 21.4772 59.5056 23.4015 59.6146H36.8301H36.8277C38.7543 59.5056 40.3961 58.1961 40.9131 56.3561C41.3008 56.491 41.7052 56.5668 42.1168 56.5834H55.5553C59.0542 56.5834 60.2317 52.3777 60.2317 50.4689V50.4666C60.2461 47.497 58.4578 44.8067 55.696 43.639ZM46.7693 34.7941H46.7717C46.9703 34.7136 47.1738 34.6473 47.3844 34.5928C47.5471 34.5454 47.7123 34.4933 47.8798 34.4626C48.0473 34.4294 48.1933 34.4176 48.3489 34.401H48.3465C48.672 34.356 49.0022 34.356 49.3277 34.401C49.4929 34.4176 49.6604 34.4341 49.8231 34.4649C49.9859 34.4981 50.1438 34.5454 50.3042 34.5928C50.5124 34.6473 50.7158 34.7136 50.9169 34.7941C52.7573 35.6135 53.9228 37.444 53.8773 39.4427C53.8773 39.5658 53.8558 39.6842 53.8414 39.8074L53.8438 39.805C53.8271 39.9968 53.8007 40.1886 53.7625 40.3781C53.7385 40.4941 53.7002 40.6102 53.6643 40.7262C53.6141 40.9062 53.5518 41.0838 53.4824 41.2567C53.425 41.394 53.3556 41.5219 53.279 41.6498H53.2766C53.1952 41.8132 53.1043 41.9695 53.0062 42.121C52.932 42.2323 52.8458 42.3341 52.7621 42.436H52.7597C52.6448 42.5852 52.5203 42.7296 52.3887 42.8646C52.2882 42.9617 52.1853 43.0493 52.0704 43.1393C51.9316 43.2577 51.788 43.3714 51.6372 43.4732C51.508 43.5584 51.3692 43.6295 51.228 43.7029C51.0724 43.7905 50.9121 43.871 50.7469 43.9397C50.6009 44.0013 50.4525 44.0439 50.3066 44.0889C50.1342 44.1457 49.9619 44.1907 49.7848 44.2286C49.6388 44.257 49.4952 44.2689 49.3469 44.2855C49.1721 44.3068 48.995 44.3186 48.8179 44.321C48.66 44.321 48.5044 44.3044 48.3489 44.2902H48.3465C48.1813 44.276 48.0186 44.2547 47.8559 44.2262C47.6883 44.1907 47.5232 44.1457 47.3628 44.0936C47.2145 44.0534 47.0709 44.006 46.9273 43.9515C46.7621 43.8829 46.6018 43.8047 46.4462 43.7147C46.3098 43.639 46.171 43.5703 46.037 43.485C45.8862 43.3808 45.7402 43.2695 45.6014 43.1511C45.4961 43.0611 45.386 42.9759 45.2879 42.8788V42.8764C45.1538 42.7414 45.0294 42.5994 44.9145 42.4478C44.8307 42.3436 44.7422 42.2465 44.6704 42.1328H44.668C44.5699 41.9813 44.4789 41.825 44.3976 41.664C44.3282 41.5337 44.2588 41.4082 44.1941 41.2709V41.2685C44.1223 41.0956 44.0625 40.9204 44.0122 40.7404C43.9763 40.6244 43.9381 40.506 43.9117 40.3876C43.8758 40.2005 43.8495 40.011 43.8327 39.8216C43.8208 39.7008 43.8016 39.58 43.7968 39.4545H43.7992C43.7514 37.4558 44.9169 35.6253 46.7597 34.8059L46.7693 34.7941ZM30.1241 37.3848C32.1655 37.3848 34.006 38.602 34.7862 40.468C35.5664 42.3341 35.1356 44.4819 33.6925 45.9099C32.2493 47.3379 30.0786 47.7641 28.1927 46.9922C26.3068 46.2178 25.0767 44.3968 25.0767 42.3791C25.0791 39.6203 27.3383 37.3871 30.1241 37.3848ZM9.32432 34.7941C9.52296 34.7136 9.72878 34.6473 9.937 34.5928C10.0997 34.5383 10.2649 34.4933 10.4324 34.4578C10.588 34.427 10.7459 34.4128 10.9015 34.3963V34.3986C11.0714 34.3773 11.2389 34.3655 11.4088 34.3631C11.5692 34.3655 11.7272 34.3773 11.8851 34.3963C12.0502 34.4128 12.2154 34.4294 12.3805 34.4602H12.3781C12.5409 34.4957 12.7036 34.5383 12.8616 34.5904C13.0698 34.6449 13.2732 34.7112 13.4742 34.7917C14.6996 35.3316 15.6569 36.3381 16.1284 37.5814C16.3533 38.1781 16.461 38.8104 16.4443 39.4474C16.4443 39.5729 16.4227 39.6961 16.4084 39.8192H16.4108C16.394 40.0086 16.3701 40.1957 16.3318 40.3804C16.3055 40.4988 16.2672 40.6172 16.2313 40.7333L16.2337 40.7357C16.181 40.9133 16.1212 41.0909 16.0518 41.2637C15.9919 41.4011 15.9225 41.529 15.8483 41.6568H15.8459C15.7646 41.8179 15.6736 41.9765 15.5755 42.1281C15.5013 42.2394 15.4151 42.3412 15.3314 42.443H15.329C15.2141 42.5922 15.0897 42.7343 14.958 42.8717C14.8575 42.9688 14.7546 43.0564 14.6397 43.1464C14.5009 43.2648 14.3573 43.3761 14.2065 43.4803C14.0773 43.5655 13.9385 43.6366 13.7973 43.71C13.6441 43.8 13.4838 43.8805 13.321 43.9515C13.175 44.0131 13.0291 44.0557 12.8807 44.1007H12.8783C12.7084 44.1575 12.5337 44.2049 12.3589 44.2404C12.213 44.2689 12.0694 44.2807 11.9234 44.2973C11.7463 44.3186 11.5692 44.3304 11.3897 44.3328C11.2317 44.3328 11.0761 44.3162 10.9206 44.302C10.7626 44.2878 10.5927 44.2688 10.4276 44.2381C10.2624 44.2025 10.0997 44.1575 9.93935 44.1054C9.78378 44.0628 9.62823 44.0107 9.47984 43.9515C9.31471 43.8828 9.15436 43.8023 8.99879 43.7147C8.86237 43.6389 8.72357 43.5703 8.58954 43.485C8.43877 43.3808 8.29517 43.2695 8.15636 43.1511C8.05105 43.0611 7.94097 42.9759 7.84284 42.8788L7.84045 42.8764C7.70882 42.7414 7.58197 42.5993 7.46709 42.4478C7.38333 42.3436 7.29478 42.2465 7.22298 42.1328C7.12246 41.9813 7.03152 41.825 6.95015 41.6639C6.88074 41.5337 6.81134 41.4082 6.74672 41.2708V41.2685C6.67492 41.0956 6.6127 40.918 6.56244 40.7404C6.52654 40.6243 6.48825 40.5083 6.46431 40.3899V40.3875C6.42602 40.2005 6.39969 40.0086 6.38533 39.8168C6.37337 39.696 6.35422 39.5753 6.34943 39.4569V39.4592C6.29918 37.4558 7.46708 35.6206 9.31228 34.7988L9.32432 34.7941ZM18.1052 53.5515H4.67655C3.69051 53.5515 3.06349 51.3777 3.06349 50.4541C3.05153 48.4625 4.40372 46.7148 6.34946 46.2104C6.72521 46.1181 7.12009 46.1678 7.45755 46.3502C7.50542 46.3691 7.55568 46.3857 7.60594 46.3975C7.7615 46.4804 7.90031 46.5846 8.06066 46.6556C8.13724 46.6912 8.21622 46.7006 8.29281 46.7314C8.36939 46.7646 8.44837 46.8167 8.53453 46.8475V46.8498C8.78343 46.9303 9.03472 46.9966 9.29082 47.0511C9.47031 47.0985 9.64502 47.1648 9.82691 47.1979L9.8293 47.2003C10.3295 47.3021 10.8392 47.3566 11.3514 47.3613H11.4424C11.9545 47.3566 12.4643 47.3021 12.9645 47.2003C13.1464 47.1648 13.3211 47.1008 13.5006 47.0535L13.503 47.0511C13.7567 46.9966 14.0104 46.9303 14.2569 46.8498C14.3431 46.8167 14.4149 46.7669 14.4986 46.7338C14.5824 46.6983 14.6566 46.6912 14.7308 46.658C14.8887 46.5893 15.0204 46.4851 15.1711 46.407L15.1735 46.4046C15.2358 46.3904 15.2956 46.3715 15.3554 46.3478C15.6761 46.1725 16.0542 46.1204 16.4133 46.2057C18.1484 46.6462 19.4431 48.0836 19.6801 49.8431C19.0985 50.8779 18.7778 52.0383 18.7467 53.2224C18.5864 53.4071 18.3614 53.5231 18.1149 53.5515L18.1052 53.5515ZM36.828 56.5827H23.4116C22.5069 56.5827 21.9086 54.7901 21.8081 53.7694V53.7315V53.6771C21.8081 53.6155 21.7937 53.5421 21.7937 53.4876C21.7746 51.4913 23.1316 49.7413 25.0869 49.244C25.4531 49.1516 25.8408 49.2014 26.171 49.3813C26.2428 49.4098 26.317 49.4334 26.3912 49.45C28.7199 50.7122 31.5391 50.7122 33.8677 49.45C33.9443 49.4334 34.0161 49.4098 34.0879 49.3813C34.4182 49.2037 34.8011 49.154 35.1672 49.2416C37.1225 49.7342 38.4867 51.4866 38.4676 53.4853C38.4676 53.5468 38.4676 53.6226 38.4532 53.6865V53.7339V53.7529C38.3431 54.783 37.7472 56.5827 36.8401 56.5827L36.828 56.5827ZM55.56 53.5515H42.1742C41.9158 53.535 41.6716 53.4213 41.4969 53.2342C41.4658 52.0502 41.1451 50.8898 40.5636 49.855C40.7957 48.1026 42.0761 46.6651 43.8041 46.2176C44.1679 46.1252 44.5532 46.1749 44.8787 46.3573C44.9385 46.381 44.9983 46.3999 45.0605 46.4141C45.2113 46.4923 45.3453 46.5965 45.5009 46.6651C45.5775 46.7007 45.6565 46.7101 45.7331 46.7409C45.8096 46.7741 45.8886 46.8262 45.9748 46.8569H45.9772C46.2237 46.9375 46.4774 47.0061 46.7311 47.0606C46.9106 47.108 47.0853 47.1743 47.2672 47.2074H47.2696C47.7697 47.3093 48.2795 47.3637 48.7917 47.3685H48.8826C49.3948 47.3637 49.9046 47.3093 50.4048 47.2074C50.5867 47.1719 50.7614 47.108 50.9409 47.0606H50.9433C51.1993 47.0061 51.4506 46.9375 51.6995 46.8569C51.7857 46.8238 51.8575 46.7741 51.9413 46.7409C52.025 46.7054 52.0992 46.6983 52.1734 46.6651C52.3338 46.5941 52.4726 46.4899 52.6257 46.4094L52.6233 46.407C52.676 46.3952 52.7287 46.3786 52.7789 46.3596C53.1116 46.1797 53.4969 46.1276 53.8654 46.2128C55.8183 46.7149 57.1777 48.4601 57.1705 50.4565C57.1849 51.3753 56.5578 53.5516 55.5718 53.5516L55.56 53.5515Z" fill="#0E0E0E"/>
</svg>
