<svg width="93" height="93" viewBox="0 0 93 93" fill="none" xmlns="http://www.w3.org/2000/svg">
<path d="M90.5014 60.7612C88.6904 58.8306 85.9055 58.2156 83.4281 59.1723C80.5749 60.2658 77.3288 62.1622 73.8093 64.8103C72.2887 65.955 70.3581 66.7922 68.2395 67.4072C68.6325 65.3741 68.1882 62.6747 66.2406 61.1883C65.4888 60.6245 64.6004 60.2999 63.5411 60.1974C58.2619 59.7361 50.6418 57.5834 42.0649 54.1493C30.8057 49.6559 17.9239 60.2316 17.3772 60.6929C17.2747 60.7783 17.2063 60.8979 17.138 61.0004L16.1983 59.3773C15.9762 58.9844 15.6003 58.6939 15.1561 58.5743C14.729 58.4547 14.2506 58.5231 13.8577 58.7452L0.855578 66.2626C0.035498 66.741 -0.237862 67.7831 0.223439 68.6032L13.8236 92.146C14.0457 92.539 14.4216 92.8294 14.8658 92.949C15.0025 92.9832 15.1563 93.0003 15.31 93.0003C15.6005 93.0003 15.908 92.9149 16.1643 92.7782L29.1664 85.2608C29.9864 84.7824 30.2598 83.7403 29.7985 82.9202L28.7392 81.075C32.925 79.4007 37.9994 80.2378 44.2355 81.28C48.6433 82.0147 53.4614 82.8348 58.741 82.8348C60.6375 82.8348 62.5851 82.7323 64.6012 82.476C75.7915 81.0922 84.6757 74.9245 90.1778 69.9692C91.5105 68.7391 92.2793 67.0136 92.2793 65.2025C92.2793 63.5282 91.6472 61.9563 90.5025 60.7604L90.5014 60.7612ZM15.9419 88.9512L4.05077 68.3639L14.0967 62.555L24.8432 81.1609V81.2122L24.8773 81.2464L25.9708 83.1428L15.9248 88.9517L15.9419 88.9512ZM87.887 67.441C83.7012 71.2168 75.0565 77.7261 64.1899 79.0763C57.0826 79.9647 50.5558 78.8713 44.8153 77.8975C38.1009 76.7699 32.2068 75.796 27.0294 78.0683L18.709 63.648C19.0336 63.6139 19.3411 63.5114 19.5974 63.2893C19.717 63.1867 31.4711 53.5679 40.8167 57.3095C49.6838 60.8631 57.6622 63.0841 63.2661 63.5797C63.4199 63.5797 63.847 63.6309 64.1887 63.8872C64.8379 64.3827 65.1454 65.6811 64.8892 66.8258C64.8892 66.8429 64.8892 66.8771 64.8721 66.8942C64.7012 67.5263 64.2058 68.073 63.5394 68.3806C55.9537 69.4911 48.0257 68.6369 47.9065 68.6369C46.9497 68.5514 46.1297 69.2178 46.0271 70.1403C45.9246 71.08 46.5909 71.9172 47.5306 72.0197C47.9577 72.071 53.4761 72.6519 59.8832 72.1906H59.9002C65.5041 71.7806 71.7575 70.5846 75.8579 67.5094C79.9242 64.4511 82.8798 62.9989 84.6567 62.3326C85.8355 61.8713 87.151 62.1617 88.0224 63.0843C88.5691 63.6481 88.8596 64.3998 88.8596 65.1858C88.8596 66.0401 88.5008 66.843 87.8857 67.424L87.887 67.441Z" fill="black"/>
<path d="M46.1493 23.4988C52.3512 23.4988 57.4084 18.4587 57.4084 12.2396C57.4084 6.02057 52.3683 0.980469 46.1493 0.980469C39.9302 0.980469 34.8901 6.02057 34.8901 12.2396C34.8901 18.4587 39.9302 23.4988 46.1493 23.4988ZM46.1493 4.41496C50.4718 4.41496 53.9913 7.93452 53.9913 12.257C53.9913 16.5795 50.4718 20.099 46.1493 20.099C41.8268 20.099 38.3072 16.5795 38.3072 12.257C38.3072 7.93452 41.8268 4.41496 46.1493 4.41496Z" fill="black"/>
<path d="M27.0649 50.5438C28.0046 50.5438 28.7734 49.775 28.7734 48.8353C28.7734 39.2507 36.5642 31.4595 46.1493 31.4595C55.7344 31.4595 63.5251 39.2502 63.5251 48.8353C63.5251 49.775 64.294 50.5438 65.2336 50.5438C66.1733 50.5438 66.9421 49.775 66.9421 48.8353C66.9421 37.3717 57.6138 28.0425 46.1493 28.0425C34.6848 28.0425 25.3564 37.3708 25.3564 48.8353C25.3564 49.775 26.1253 50.5438 27.0649 50.5438Z" fill="black"/>
<path d="M20.6936 26.0785C26.0241 26.0785 30.3638 21.7389 30.3638 16.4084C30.3638 11.0778 26.0241 6.75537 20.6936 6.75537C15.3631 6.75537 11.0234 11.095 11.0234 16.4084C11.0234 21.7217 15.3631 26.0785 20.6936 26.0785ZM20.6936 10.1723C24.1447 10.1723 26.9468 12.9742 26.9468 16.4083C26.9468 19.8423 24.1448 22.6614 20.6936 22.6614C17.2424 22.6614 14.4404 19.8595 14.4404 16.4083C14.4404 12.957 17.2424 10.1723 20.6936 10.1723Z" fill="black"/>
<path d="M4.78617 48.6137C5.72585 48.6137 6.49467 47.8449 6.49467 46.9052C6.49467 39.0803 12.8673 32.708 20.6919 32.708C22.4858 32.708 24.2285 33.0326 25.8857 33.6818C26.7741 34.0235 27.748 33.5964 28.1067 32.7251C28.4484 31.8537 28.0213 30.8628 27.15 30.5041C25.0998 29.7011 22.9299 29.291 20.7089 29.291C10.9876 29.291 3.09473 37.2014 3.09473 46.9052C3.09473 47.8449 3.86355 48.6137 4.80323 48.6137L4.78617 48.6137Z" fill="black"/>
<path d="M71.6052 26.0785C76.9357 26.0785 81.2754 21.7389 81.2754 16.4084C81.2754 11.0778 76.9357 6.75537 71.6052 6.75537C66.2747 6.75537 61.9351 11.095 61.9351 16.4084C61.9351 21.7217 66.2747 26.0785 71.6052 26.0785ZM71.6052 10.1723C75.0563 10.1723 77.8584 12.9742 77.8584 16.4083C77.8584 19.8423 75.0564 22.6614 71.6052 22.6614C68.154 22.6614 65.3521 19.8595 65.3521 16.4083C65.3521 12.957 68.154 10.1723 71.6052 10.1723Z" fill="black"/>
<path d="M65.1479 30.5041C64.2766 30.8458 63.8324 31.8368 64.1912 32.7251C64.5499 33.6134 65.5239 34.0406 66.4122 33.6819C68.0694 33.0326 69.8121 32.708 71.606 32.708C79.4309 32.708 85.8032 39.0807 85.8032 46.9052C85.8032 47.8449 86.5721 48.6137 87.5117 48.6137C88.4514 48.6137 89.2202 47.8449 89.2202 46.9052C89.2202 37.1839 81.3099 29.291 71.606 29.291C69.385 29.291 67.2152 29.7011 65.165 30.5041L65.1479 30.5041Z" fill="black"/>
</svg>
