<svg width="61" height="51" viewBox="0 0 61 51" fill="none" xmlns="http://www.w3.org/2000/svg">
<path d="M41.0088 34.6968C47.3364 34.6968 52.5426 29.4762 52.5426 23.1312V11.5656C52.5426 5.22059 47.3364 0 41.0088 0H11.5337C5.2062 0 0 5.22059 0 11.5656V23.1312C0.000640763 28.8016 4.15983 33.6765 9.74601 34.5555L5.31834 41.7647C5.20556 41.96 5.14661 42.1817 5.14661 42.4072C5.14661 43.1044 5.7124 43.6814 6.40763 43.6923C6.56334 43.6929 6.71776 43.6647 6.86257 43.6088L30.353 34.6968H41.0088ZM29.6609 32.2102L9.4833 39.8371L13.0523 34.0543C13.1651 33.859 13.2241 33.6373 13.2241 33.4118C13.2241 32.7146 12.6583 32.1376 11.963 32.1267H11.5337C6.61268 32.1267 2.56305 28.0659 2.56305 23.1312V11.5656C2.56305 6.63095 6.61268 2.57013 11.5337 2.57013H41.0088C45.9299 2.57013 49.9795 6.63095 49.9795 11.5656V23.1312C49.9795 28.0659 45.9299 32.1267 41.0088 32.1267H30.1159C29.9602 32.126 29.8057 32.1543 29.6609 32.2102Z" fill="#0E0E0E"/>
<path d="M57.291 10.2811C57.0468 10.0061 56.697 9.84863 56.3298 9.84863C55.6237 9.84863 55.0432 10.4308 55.0432 11.1388C55.0432 11.455 55.1591 11.7602 55.3687 11.9966C56.8444 13.6422 57.6639 15.7779 57.669 17.9915V29.5571C57.669 34.4917 53.6194 38.5525 48.6983 38.5525H48.269C47.5738 38.5635 47.008 39.1405 47.008 39.8376C47.008 40.0631 47.0669 40.2848 47.1797 40.4801L50.7488 46.2629L30.5711 38.6361C30.4263 38.5802 30.2719 38.5519 30.1162 38.5525H26.9124C26.2095 38.5525 25.6309 39.1327 25.6309 39.8376C25.6309 40.5425 26.2095 41.1227 26.9124 41.1227H29.8791L53.3695 50.0346C53.5143 50.0905 53.6687 50.1188 53.8244 50.1181C54.5197 50.1072 55.0855 49.5302 55.0855 48.8331C55.0855 48.6075 55.0265 48.3859 54.9137 48.1905L50.4861 40.9813C56.0722 40.1023 60.2314 35.2274 60.2321 29.5571V17.9915C60.2308 15.147 59.1831 12.4001 57.291 10.2811Z" fill="#0E0E0E"/>
<path d="M14.7369 19.9186C16.1524 19.9186 17.2999 18.7679 17.2999 17.3485C17.2999 15.929 16.1524 14.7783 14.7369 14.7783C13.3213 14.7783 12.1738 15.929 12.1738 17.3485C12.1738 18.7679 13.3213 19.9186 14.7369 19.9186Z" fill="#0E0E0E"/>
<path d="M26.272 19.9186C27.6876 19.9186 28.8351 18.7679 28.8351 17.3485C28.8351 15.929 27.6876 14.7783 26.272 14.7783C24.8565 14.7783 23.709 15.929 23.709 17.3485C23.709 18.7679 24.8565 19.9186 26.272 19.9186Z" fill="#0E0E0E"/>
<path d="M37.8052 19.9186C39.2208 19.9186 40.3683 18.7679 40.3683 17.3485C40.3683 15.929 39.2208 14.7783 37.8052 14.7783C36.3897 14.7783 35.2422 15.929 35.2422 17.3485C35.2422 18.7679 36.3897 19.9186 37.8052 19.9186Z" fill="#0E0E0E"/>
</svg>
